<svg xmlns="http://www.w3.org/2000/svg"><svg xmlns="http://www.w3.org/2000/svg" width="306" height="306" fill="none" style="z-index: 2; position: absolute; pointer-events: none;"><path fill="#fff" d="M236.1 278.4c-.7.5-1.5 1-2.2 1.5-.8.5-1.5 1-2.3 1.4-.7.4-1.3.8-2 1.2-.1.1-.2.1-.3.2-2.3 1.4-4.7 2.7-7.1 3.9-.7.4-1.5.8-2.2 1.1 0 0-.1.1-.2.1l-2.4 1.2c-1.6.8-3.3 1.5-4.9 2.2-.8.4-1.7.7-2.5 1-.8.3-1.7.7-2.5 1-.8.3-1.7.7-2.5 1h-.1c-.8.3-1.7.6-2.5.9-1.8.6-3.7 1.2-5.5 1.8-.6.2-1.3.4-1.9.6-1.9.6-3.8 1.1-5.7 1.5-.7.2-1.4.3-2.2.5-1.8.4-3.7.8-5.5 1.2-.4.1-.7.1-1.1.2-.6.1-1.3.2-1.9.3-.9.1-1.7.3-2.6.4-.4.1-.8.1-1.2.2-.5.1-1.1.2-1.7.2-1.6.2-3.3.4-4.9.6-.5.1-1.1.1-1.6.2h-.1c-.7.1-1.4.1-2.1.2-.7.1-1.4.1-2.1.1-.4 0-.9.1-1.3.1-.8 0-1.5.1-2.2.1-1 0-1.9.1-2.9.1h-5c-42.2-.6-80.1-18.5-107.2-46.9 0 0 0-.1-.1-.1-3-2.7-.4-17.1 11.7-26.2 15.2-11.5 51.6-18.7 51.6-18.7s14.1-2.3 66.4 8.6c30.6 6.4 53.9 15.7 66.9 40.9 2.7 5.2 5.4 13.2-4.1 17.4Z"></path><path fill="#000" d="M173.6 219c19.2 3.9 39.7 8.1 55.5 20.8 5.3 4.3 8.8 10.6 11.7 16.7 1.4 3 2.8 6.1 3.9 9.4.6 2.2 1.5 4.7 1 7.3-.1.7-.7 1.6-1.2 2.1-2.3 2.3-4.8 3.7-7.3 5.5-14.7 10.2-31.6 17.4-49.1 21.2-39 8.5-81.2 1.9-115.5-18.6-11.4-6.9-21.9-15.3-30.9-25.2-1-1.2-1-3.2-1-4.5.1-3 .9-5.9 1.9-8.6 2.4-6.2 5.5-12.4 10.8-16.7 3.8-2.6 7.9-4.8 12.1-6.6 13.2-5.6 27.1-9.5 41.4-11.1 1.2-.1 1.4 1.6.2 1.8-13.7 2.8-27.3 7-40 12.7-4.6 2.3-9.5 4.3-13.2 7.9-3.5 3.8-6 8.5-8 13.3-1.3 2.9-2.2 7.5-1.8 9.8 6.3 7.5 13.7 14.1 21.7 19.8 43.8 30.6 110.3 32.6 156.9 7.1 4.2-2.3 8.3-4.9 12.2-7.6 1.9-1.3 3.9-2.4 5.4-3.9.1-.1 0 0 0 .1s-.1.2-.1.2c.1-1.2-.3-2.8-.8-4.4-1.8-5.8-4.7-11.9-7.8-17.2-4.9-7.9-13.2-12.9-21.6-16.9-5.8-2.7-11.9-4.8-18.1-6.8-6.2-2-12.5-3.7-18.8-5.2-1.6-.4-1.1-2.7.5-2.4Z"></path></svg><svg xmlns="http://www.w3.org/2000/svg" width="306" height="343" fill="none" style="z-index: 3; position: absolute; pointer-events: none;"><path fill="#000" d="M269.299 340.4h-252.9s11.8-38.2 20.7-73.5c3.5-13.8 10-32.6 18-38.1 11-7.6 29.2-11.9 37.4-14.8 5.7-2 10.1-2.7 14.2-3.8 0 .5.1.9.1 1.4 0 0 9.1 20.4 37.2 31.7 22.9 9.3 30.9 5.6 33-4.7 1.3-6.6 4.6-8.1 2.5-11.6-1.2-1-2-2.5-2.4-4l-.8-3.3c1.9-.4 3.7-.9 5.5-1.5.6-.2 1.1-.4 1.7-.6 11.1 6.3 26.4 8.3 44.9 21.9 3.3 2.4 12.9 12.8 16.9 38.1 5.6 33.3 24 62.8 24 62.8Z"></path><path fill="#000" d="M271.1 341.4c-75.1.3-180.7 1.3-254.7 1.1-1.2 0-2.1-.9-2.1-2.1 2.9-12.4 7.6-30.3 10.8-42.8 2.5-10.1 5.6-21.4 8.1-31.6 3.6-13.3 8.1-30.6 19.4-39.4 3.7-2.4 7.8-4.1 11.7-5.6 8.6-3.2 17.4-5.6 26.2-8.3 5-1.9 10.6-3.1 15.8-4.6 1.1-.3 2.2.3 2.5 1.3.1.3.1 1.6.2 1.9l-2.1-1.9c.8 0 1.6.5 1.9 1.2.8 1.7 1.9 3.5 3 5.1 10.6 15.3 27.7 25.1 45.5 29.7 5.1 1.1 11.9 2.4 15.6-2.1 2.4-3.1 2.3-7.9 4.2-11.3.7-1.6 1.5-2.6.7-4l.4.5c-1.3-1.2-2.3-2.7-2.8-4.3-.4-1.5-.7-2.8-1-4.1-.3-1.1.5-2.3 1.6-2.5 2.3-.5 4.7-1.2 6.9-2 .6-.2 1.2-.1 1.7.1 2.9 1.3 5.9 2.4 9 3.5 9.7 3.1 19.4 6.4 28.3 11.5 3 1.7 5.9 3.6 8.7 5.6 3.3 2.5 5.4 5.3 7.5 8.6 7.6 11.9 10 25.6 12.5 39.2 3.8 17.6 10.4 34.6 18.2 50.8l1.1 2.2.5 1.1.3.5.1.3.1.1c0-.1.1.1.2.4.4.7.3 1.5 0 1.9Zm-3.6-2c-.3.4-.4 1.1-.2 1.6.1.3.2.5.2.4l-.1-.1-.2-.3-.3-.5c-6.6-11.3-12.1-23.2-16.4-35.5-2.8-8-5.1-16.1-6.6-24.5-1.8-11.1-4.6-22.7-10.6-32.3-1.6-2.5-3.6-5.2-6-7-2.7-1.9-5.4-3.8-8.2-5.4-5.6-3.4-11.6-6.1-17.7-8.5-6.1-2.5-12.6-4.4-18.7-7.9l1.7.1c-2.4.9-4.9 1.6-7.5 2.1l1.6-2.5c.6 2.2.7 4.8 2.5 6.3 1.1 1.2 1.6 3.3 1.3 5-.3 1.5-.9 2.5-1.3 3.4-.9 1.9-1.5 3.5-1.9 5.6-3.5 17.4-23.6 10.7-35 6.2-16-6.4-30.9-17.6-39-33.1l1.9 1.2c-1.1 0-2-.8-2.1-1.9l-.1-1.3 2.6 1.8c-5.6 1-10.6 1.8-15.8 3.7-11.9 3.7-24.6 6.8-34.9 13.9-10.7 7.8-16.8 35.5-20.2 48.3-3.7 14.1-7.6 28.1-11.7 42-2.1 7-4.2 13.9-6.4 20.9l-2-2.7c72.6-.1 177.5.4 251.1 1Z"></path><path fill="#fff" d="m167.899 250.8.2.2v-.2h-.2Z"></path><path fill="#000" d="M191.8 213.7s0-9.6-8.4-12.1c-15.5-4.7-44.8-6.8-64.4-6.8 0 0-8.3.6-11.3 2.1-2.9 1.4-6.4 2.3-7.2 8.8-.4 3.2-.4 8.3-.3 12.8.1 6 2.5 11.8 6.7 16.1 6.7 6.9 20.6 15.9 36.5 18.6 38.3 6.4 48.7-10.3 48.4-19.2-.4-10.3 0-20.3 0-20.3Z"></path><path fill="#000" d="M189.7 213.6c-.2-4.3-2.5-8.9-6.9-10.1-1.4-.4-2.8-.8-4.1-1.1-19.5-4.3-39.7-5.3-59.7-5.6-2.6.3-7.6.7-10.5 1.9-1.2.6-2.7 1.2-3.7 2-2.3 2-2.4 5.5-2.5 8.6-.1 1.8-.1 3.6-.1 5.4-.6 12.2 4.8 18.7 14.5 25.2 7.3 5 15.5 8.6 24.2 10.6 11.9 2.3 25.1 3.4 36.5-1.2 6-2.4 11.6-7.5 12.3-14.1.1-1.4 0-3.8 0-5.2-.2-5.2-.2-11.1 0-16.4Zm4.1.1c-.1 5.3-.1 11 0 16.3 0 1.7.2 4.1 0 5.7-.9 8.4-7.6 14.7-14.9 17.7-11.5 4.8-24.3 4-36.3 2.1-2.6-.5-5.8-1.2-8.3-2-10.8-3.5-20.9-9.1-29-17.1-5.8-5.7-8-13.7-7.5-21.6.3-5.8-.7-12.7 4.1-17.2 1.5-1.2 3-1.9 4.6-2.6 4.1-1.6 8.1-1.9 12.3-2.3 13.5.1 27 .8 40.5 2.4 8 1 16.1 2.1 23.9 4.4l.6.2.7.3c3.5 1.7 5 5.4 7 8.4 1.3 1.6 2.2 3.3 2.3 5.3Z"></path><path fill="#fff" d="M100.9 218.4c2.2 32.1 51.7 66.4 81.1 48.6 7.7-5.2 9.8-15.1 9.6-23.8 0-3-.3-6-.5-9.1-.1-.7 1.1-.9 1.2-.2 4.2 16.8 2.1 35.4-17.5 40.4-27.5 6.7-58.7-13.5-70.8-37.7-2.8-5.6-4.6-11.8-4.7-18 .1-1 1.5-1.2 1.6-.2Z"></path></svg><svg xmlns="http://www.w3.org/2000/svg" width="306" height="306" fill="none" style="z-index: 4; position: absolute; pointer-events: none;"><path fill="#fff" d="M183 245.6c-2.1 10.3-15.7 16.5-38.6 7.2-23.8-9.6-34.1-32.5-36.7-39.3 14.1-26.4 4.3-44.7 4.3-44.7 32.5-2.8 60.9 35.2 60.9 35.2l4.4 18.8c.4 1.6 1.2 3 2.4 4 2.1 3.7 4.6 12.2 3.3 18.8Z"></path><path fill="#000" d="M107.2 213.8c1.9-2.9 3.1-6.3 3.9-9.6 1.5-6.9 2-13.9 2.1-20.9v-2.6c-.3-2.6-1.2-5.3-2.2-7.7-1.3-3.2 3.4-5.2 4.9-2 .2.4.2 1.1.2 1.5.3 13.6.9 31.1-7.7 42.4-.6.6-1.8-.3-1.2-1.1ZM174 203.8c1.5.9 2 2.1 2.2 3.3.6 2.4.4 5 1 7.5.5 2.4 2 4.7 2.4 7.2.5 2.6 2 8.1 2.6 10.8.2.6-.2 1.3-.9 1.4-.4.1-.7 0-1-.2-1.3-1.1-1.9-2.2-2.7-3.6-1.3-2.4-2.2-4.6-3-7.3-.7-2.4-.4-5-1-7.5-.5-2.4-1.9-4.7-2.4-7.2-.3-1.2-.4-2.5.5-4 .6-.6 1.6-.8 2.3-.4Z"></path><path fill="#000" d="M181.2 230.2c-19.1-1-34.7-7-49.9-34.1 12.8 11.3 27.9 15.6 43.8 17.6l2.1 9.2c.4 1.6 2.8 6.3 4 7.3Z"></path><path fill="#000" d="M180.401 226.5c3.4 6.4 5.4 14.4 3.3 21.5-1.6 5-6.2 8.7-11.2 10.1-11.6 3.1-25-1.8-35.3-7.3-12.7-7.1-22.1-19-28.1-32-.4-1 1-1.8 1.6-.8 2.1 4.2 4.5 8.3 7.2 12 2.7 3.8 5.8 7.3 9.3 10.4 10.2 9.2 24 14.9 37.8 14.9 14.2-.4 19.6-7.9 16.3-21.7-.5-2.2-1.3-4.5-2.4-6.4-.6-.8.9-1.7 1.5-.7Z"></path><path fill="#fff" d="M219.1 106.4c1.8 8.4.4 14-.4 37.2-.4 11-2.1 15.1-2.6 27.4-.2 5.6-4.3 13.3-5.8 17.8-2 6.1-4 14.3-8.6 20.2-2.4 3-5.3 4.8-10.1 5.6-1.6.3-3.2-2.1-4.5-1.6-15.7 6.9-32.9 3.7-48.5-9.9-6.8-6-17-20.5-21.3-30.5-.9-2.1-4.9 2.3-10.6-4-7.9-8.6-17.4-25.9-12.7-56.5 7.6-49.6 46.9-55.4 76-49.9 29.3 5.5 44.3 22.1 49.1 44.2Z"></path><path fill="#000" d="M111.7 177.4c-2.3-3.8-5.3-7.2-8-10.8-4-5.5-7-11.8-9-18.3-10.3-32.2-.5-75.9 35.5-86.3 13.2-4 27.2-3.7 40.6-1.2 18 3.1 36 12.3 44.8 29 3.2 6.2 5.6 12.9 6.3 19.8.4 4.6-.4 9.2-.9 13.7-.6 4.5-.7 8.9-.9 13.4-.5 6.7-1.4 13.3-1.7 20-.4 4.5-.1 9-.8 13.5-1.5 9-4.9 17.4-7.7 25.9-2.2 6.5-4.4 14.5-11.1 17.8-4.8 2.9-10.6 3-15.9 2.6-.8 0-1.4-.2-2 0-12.9 2.5-24.9.3-35.7-7.5-5.2-4.1-11.4-8-15.3-13.4-.4-.6.4-1.3.9-.8 3.1 3.1 6.8 5.5 10.6 7.8 3.9 2.4 7.4 4.9 11.3 6.6 8.3 4 17.6 4.6 26.6 3 .5-.1 1.5-.3 2-.2 3.3.2 6.5.5 9.7 0 3.9-.6 7.7-2.3 9.9-5.5 2.3-3.2 3.5-7.6 5.1-11.8 3.1-8.3 6.8-16.5 8.7-25.1.8-3.7 1-9.3 1.3-13.2.7-8.9 2.3-17.7 2.3-26.7.1-4.5.2-9 .1-13.4-1.2-22.4-14.1-41.6-35.4-49.5-23.7-8.9-55.3-8.3-72.7 12.4-8.4 9.9-12.3 22.9-14.1 35.6-3.4 20.2-2.1 40.2 14 54.9l4.7 4.9c1.8 2.6-1.6 5.2-3.2 2.8Z"></path><path fill="#fff" d="M123.5 145.6s-3.1-15-17.7-13.2c-12.6 1.6-17 31.8 11.6 40.2"></path><path fill="#000" d="M116.1 159.5c-2.3-1.3-3.9-3.5-4-6.2.1-2 .4-4.3-.1-6.3-.3-1.9-2.3-2.4-3.8-2.3-1.6.3-2.6 2.3-2.9 3.9 0 .1-.1.4-.1.5-.1.5-.9.5-1.1 0-1.3-3.9 1.6-8.2 5.8-7.7 5.9.4 6.7 6.6 5.6 11.3-.6 2 .2 3.8 1.3 5.5l.2.3c.5.6-.3 1.4-.9 1ZM196.1 135c1.5 7.1 4.3 13.7 7.8 19.9 3.1 7.6-4.9 14.8-12 14.5-.8 0-.9-1.1-.2-1.3 4.5-1.4 8.6-4.4 9.3-9 .3-1.4-.1-2.6-.8-3.8-3.3-6.2-5.3-13.3-4.8-20.3 0-.5.7-.5.7 0Z"></path><path fill="#000" d="M123 145.7c-2.3-5.9-7.3-11.5-14-11.4-.6-.1-1.6.1-2.2.1-1.7.1-3.1.7-4.4 1.9-6.4 6.4-5.3 17.7-.1 24.8 1.8 2.5 4.1 4.7 6.7 6.5 2.6 1.8 5.5 3.2 8.6 4.4.7.2.4 1.3-.3 1.2-6.7-1.4-13.1-4.7-17.5-10.2-6.8-8.2-8.2-21.9-.1-29.9 1.8-1.6 4.3-2.8 6.8-2.8.8 0 2-.2 2.8 0 4.2.2 8.2 2.3 10.8 5.6 2.3 2.8 3.6 6.2 4 9.6 0 .6-.9.8-1.1.2ZM179 212.8c4.6-1 7.3-5.5 6.9-10.1-.1-.7 1-.9 1.1-.2 1.7 5.7-1.4 11.9-6.9 14.1-2.9 1.1-4.1-3.3-1.1-3.8Z"></path></svg><svg xmlns="http://www.w3.org/2000/svg" width="306" height="306" fill="none" style="z-index: 5; position: absolute; pointer-events: none;"><path fill="#000" d="M223.627 73.793c1.8-4.2 1.8-8.8-1.2-12.8-8.7-11.5-35.6-2.8-50.6-7.6-22.5-7.3-50.4-8.2-66.8 18.8-4.1 6.8-6.1 8.7-11.9 14.1-6 5.6-10.7 15.9-11.1 30-.9 28.3 21.3 52.9 21.3 52.9 1.1 1.5 2.1 2.8 3 3.9 8 9.6 10.5 28.1 8.1-1.1-24.9-9.6-20.4-37.5-8.3-39 12.8-1.6 16.8 9.8 17.5 12.6 8.6-5.5 5.5-17.2 4.5-28.1 6.7-3 12.4-10.2 15.4-16.7 3.3 4.6 7.3 8.2 12.1 8.6 5.1.5 8.1-3.8 9.1-9.9 6.6 8.7 18.3 19.5 36.7 21.6 8.8 1 16.1-2.7 21-8.8 1.3.2 2.5.3 3.7.2 12.9-1.3 27.3-27.4-2.5-38.7Z"></path></svg><svg xmlns="http://www.w3.org/2000/svg" width="306" height="306" fill="none" style="z-index: 6; position: absolute; pointer-events: none;"><path fill="#000" d="M173.5 124.4c2.2.3 3.9-2 3.1-4.2-.4-1.2-1.1-2.3-2.2-3-3.4-2.1-16.1-2.3-22.8 2.5-6 4.4 11.9 3.3 21.9 4.7ZM201.2 125.5c-1.8 0-2.9-2.3-2-4.2.5-1 1.2-1.9 2.2-2.4 3.1-1.5 11.4-.6 15.1 4.5 3.3 4.5-7 2-15.3 2.1ZM170.2 137.6c-3.5 3.1-8.9 3.1-13.1 1.5-.7-.3-4.7-2.1-3.9-3.1.1-.1.3-.2.4-.2 2.8.1 5.4.4 8.1.6 2.7.2 5.1.1 7.9 0 .7 0 1.1.8.6 1.2ZM209.7 139.3c-3.2 3.7-9.7 3.2-12.7-.4-.3-.3 0-.9.4-.8 1.1.1 2.1.3 3.1.4 3 .5 5.5.4 8.7.3.5-.2.7.3.5.5Z"></path></svg><svg xmlns="http://www.w3.org/2000/svg" width="306" height="306" fill="none" style="z-index: 7; position: absolute; pointer-events: none;"><path fill="#000" d="M188.5 179.4c-6.4 6.1-18.5 1.2-21.7-6.2-.4-.9.6-1.7 1.4-1.3 1.7.9 3.2 1.8 4.8 2.5 4.6 2.1 9.4 3.8 14.5 3.3 1-.2 1.7 1 1 1.7Z"></path></svg><svg xmlns="http://www.w3.org/2000/svg" width="306" height="306" fill="none" style="z-index: 8; position: absolute; pointer-events: none;"></svg><svg xmlns="http://www.w3.org/2000/svg" width="306" height="306" fill="none" style="z-index: 9; position: absolute; pointer-events: none;"><path fill="#fff" d="M112.3 148.7s-8-1.2-7.4 10c.3 5.7.3 8.8.2 10.4-.1 1.1.6 2.1 1.6 2.5 1.2.5 2.5 0 3.1-1.2.9-1.6 1.9-3.8 1.9-5.6 0-3 3.2-5.7 3.2-5.7s-2.9-2.5-2.6-10.4Z"></path><path fill="#000" d="M112 149c0 .1.1.2.2.2H111.9c-4.8.4-6.3 4.6-6.1 8.9.1 2.8.3 5.6.2 8.3.2 1.5-.7 3.5.8 4.3.9.5 2.1.1 2.5-.9.9-1.8 1.8-3.6 1.8-5.6.4-2.3 1.9-4.1 3.5-5.5v.8c-2.1-2.2-2.6-5.2-2.9-8 .1-.7.1-1.8.3-2.5Zm.7-.7c.3 2.8.3 5.7 1.5 8.2.3.7.8 1.5 1.4 2 .4.3.4.9 0 1.2-1.4 1.3-2.6 2.9-2.8 4.7 0 2.2-.9 4.3-1.9 6.2-.8 1.7-3.1 2.6-4.8 1.6-1.1-.6-1.9-1.8-1.9-3.1 0-1 .1-1.8.1-2.8 0-2.8-.2-5.5-.3-8.3 0-1.8.1-3.9.9-5.7 1-2.8 4.1-4.7 7.1-4.2.3 0 .6.1.7.2Z"></path><path fill="#000" d="M111 267.1c3.3-14.4-1-30.6-4.7-45-1.5-5.7-3-11.1-3.7-15.8-1.3-7.9-.4-15.4 2.8-22.4 3.9-8.7 3.3-16.1 3.3-16.4l-2 .2c0 .1.6 7.3-3.1 15.4-3.3 7.3-4.3 15.2-3 23.5.8 4.8 2.2 10.3 3.7 16 3.7 14.1 7.9 30.1 4.7 44-1.8 7.7 1.7 20.3 6.7 32.9.8.1 1.5.2 2.3.3-5.1-12.6-8.7-25.3-7-32.7Z"></path><path fill="#fff" d="M105.2 164.5c.1 2.2 0 3.7 0 4.6-.1 1.1.6 2.1 1.6 2.5 1.2.5 2.5 0 3.1-1.2.9-1.6 1.9-3.8 1.9-5.6v-.4c-2 .8-4.4 1.4-6.6.1Z"></path><path fill="#000" d="M105.5 164.9c.1 1.4.2 2.7.2 4.1-.1.6.1 1.2.5 1.7 1.3 1.3 3.1.5 3.6-1.1.8-1.6 1.5-3.3 1.5-5.1l.7.5c-2.2.4-4.5 1-6.6.1 0 0 .1-.1.1-.2Zm-.5-.9c.2 0 .6.1.8.3 1.8 1.3 4.1.7 5.9-.3.3-.2.8.1.7.5-.1 2.3-1 4.5-2.2 6.5-1.1 1.5-3.4 1.6-4.7.3-.6-.6-.9-1.6-.8-2.4 0-1.7.2-3.3.3-4.9ZM199.4 231c1.7-11.8.1-20.2-.5-22.7-.3.2-.5.5-.8.7-.3.3-.6.5-.9.8.6 3.2 1.7 10.8.2 20.9-.7 4.7-.9 12.1-1 20.7-.2 8.3-2.8 29-5.9 48.6.7-.2 1.4-.4 2.1-.5 3.1-19.4 5.6-39.7 5.8-48 .2-8.6.3-15.9 1-20.5Z"></path></svg></svg>